<?xml version="1.0" standalone="no"?>
<!DOCTYPE svg PUBLIC "-//W3C//DTD SVG 20010904//EN"
 "http://www.w3.org/TR/2001/REC-SVG-20010904/DTD/svg10.dtd">
<svg version="1.0" xmlns="http://www.w3.org/2000/svg"
 width="524.000000pt" height="242.000000pt" viewBox="0 0 524.000000 242.000000"
 preserveAspectRatio="xMidYMid meet">

<g transform="translate(0.000000,242.000000) scale(0.100000,-0.100000)"
fill="#000000" stroke="none">
<path d="M841 1635 c-149 -167 -276 -316 -281 -330 -15 -40 -13 -474 3 -505
15 -30 58 -38 81 -15 14 14 16 48 16 249 l0 233 241 271 241 271 63 -72 64
-72 -43 -45 c-24 -25 -118 -125 -210 -224 l-166 -179 0 -211 c0 -152 3 -215
12 -224 9 -9 117 -12 424 -12 362 0 415 2 428 16 14 13 16 52 16 267 l0 252
-33 37 c-17 20 -54 62 -82 94 -27 32 -57 65 -65 74 -8 8 -28 31 -44 50 -27 33
-119 137 -176 201 -14 15 -45 52 -70 81 -75 88 -88 98 -118 98 -25 0 -63 -39
-301 -305z m643 -215 l136 -155 0 -197 0 -198 -335 0 -335 0 0 148 0 147 193
207 c105 114 195 206 199 205 4 -1 68 -72 142 -157z"/>
<path d="M1990 1125 l0 -345 70 0 69 0 3 138 3 137 100 -1 c149 0 165 -15 185
-174 7 -46 14 -88 16 -92 3 -4 35 -8 70 -8 l66 0 -6 28 c-3 15 -10 66 -16 115
-11 103 -24 134 -68 164 l-33 22 28 18 c43 27 61 53 73 106 23 94 -9 168 -90
210 -53 27 -54 27 -262 27 l-208 0 0 -345z m373 223 c29 -15 44 -36 51 -71 7
-35 -16 -92 -42 -106 -12 -6 -70 -11 -131 -11 l-111 0 0 93 c0 52 3 97 7 100
11 12 203 8 226 -5z"/>
<path d="M3850 1355 l0 -75 -40 0 c-40 0 -40 0 -40 -39 0 -39 1 -40 38 -43
l37 -3 5 -175 c3 -96 9 -182 13 -190 14 -30 53 -44 135 -48 l82 -5 0 52 c0 50
0 51 -31 51 -67 0 -69 5 -69 170 l0 150 50 0 50 0 0 40 0 40 -50 0 -50 0 0 75
0 75 -65 0 -65 0 0 -75z"/>
<path d="M2811 1273 c-170 -60 -208 -345 -59 -453 46 -34 134 -55 195 -46 83
11 157 67 178 134 6 21 4 22 -46 22 -43 0 -57 -5 -86 -30 -28 -25 -42 -30 -86
-30 -45 0 -57 4 -80 28 -27 28 -50 85 -39 96 3 3 86 6 184 6 l179 0 -6 48
c-18 128 -63 195 -154 227 -55 19 -123 18 -180 -2z m133 -87 c39 -16 66 -51
66 -83 0 -23 -2 -23 -114 -23 l-115 0 9 31 c12 40 28 59 65 75 39 17 49 17 89
0z"/>
<path d="M3450 1279 c-14 -6 -40 -24 -57 -42 l-33 -31 0 37 0 37 -60 0 -60 0
0 -250 0 -250 49 0 c85 0 81 -8 81 172 0 206 14 238 108 238 28 0 45 -7 63
-26 23 -25 24 -31 27 -205 l3 -179 65 0 64 0 0 183 c-1 229 -12 270 -80 305
-47 24 -125 29 -170 11z"/>
<path d="M4105 1263 c70 -180 175 -471 175 -488 0 -12 -11 -32 -24 -44 -19
-18 -33 -22 -65 -19 l-41 4 0 -53 0 -53 64 0 c79 0 131 21 156 62 16 27 230
587 230 603 0 3 -28 5 -63 5 l-63 0 -55 -167 c-30 -93 -59 -168 -64 -168 -5 0
-34 75 -64 168 l-56 167 -68 0 c-62 0 -68 -2 -62 -17z"/>
</g>
</svg>
