<?xml version="1.0" standalone="no"?>
<!DOCTYPE svg PUBLIC "-//W3C//DTD SVG 20010904//EN"
 "http://www.w3.org/TR/2001/REC-SVG-20010904/DTD/svg10.dtd">
<svg version="1.0" xmlns="http://www.w3.org/2000/svg"
 width="638.000000pt" height="416.000000pt" viewBox="0 0 638.000000 416.000000"
 preserveAspectRatio="xMidYMid meet">

<g transform="translate(0.000000,416.000000) scale(0.100000,-0.100000)"
fill="#FF385C" stroke="none">
<path d="M2183 2550 c-22 -16 -60 -55 -83 -85 -23 -30 -46 -55 -50 -55 -4 0
-30 18 -56 40 -60 50 -139 90 -173 89 -23 -1 -22 -2 7 -9 40 -9 92 -43 157
-103 l50 -46 -30 -55 c-26 -49 -35 -58 -70 -67 -22 -6 -48 -12 -57 -15 -38
-11 -118 206 -97 265 9 25 8 25 -6 7 -8 -11 -15 -34 -15 -52 0 -35 34 -153 57
-198 19 -37 5 -55 -32 -38 -30 14 -60 2 -69 -26 -4 -10 -23 -28 -44 -39 -94
-53 -113 -121 -43 -158 34 -17 157 -45 201 -45 28 0 28 0 18 -37 -6 -21 -11
-74 -12 -118 -1 -102 16 -135 70 -135 30 0 45 10 98 63 34 34 72 75 83 91 l20
29 19 -39 c16 -32 25 -40 56 -45 20 -3 47 -13 61 -21 32 -22 101 -40 121 -32
9 3 20 23 26 45 12 43 -2 116 -39 207 -20 49 -20 53 -3 59 71 26 117 46 149
67 132 83 90 162 -100 188 -45 6 -86 15 -91 19 -4 4 4 15 18 24 27 18 34 53
15 72 -6 6 -12 37 -14 70 -3 64 -18 113 -36 113 -8 0 -7 -5 2 -16 8 -10 13
-40 13 -76 -1 -45 -6 -63 -22 -81 -24 -26 -28 -47 -11 -64 6 -6 8 -19 5 -29
-5 -15 -17 -20 -65 -22 -58 -2 -59 -2 -100 43 l-42 45 18 33 c10 17 47 62 83
99 36 38 63 68 60 68 -3 0 -24 -13 -47 -30z m-85 -262 c-7 -4 -28 -8 -45 -8
-37 0 -42 13 -17 49 l16 23 29 -28 c21 -20 26 -30 17 -36z m162 -33 c0 -18
-21 -65 -29 -65 -11 0 -50 63 -45 72 9 15 74 9 74 -7z m222 -6 c84 -24 102
-70 43 -114 -35 -28 -167 -84 -197 -85 -9 0 -28 20 -43 46 -29 49 -29 71 0
140 l15 36 76 -7 c41 -4 89 -11 106 -16z m-299 -51 l41 -57 -24 -53 c-35 -78
-40 -81 -115 -82 l-67 -1 -39 56 -40 56 27 62 c18 42 33 63 48 66 108 23 123
19 169 -47z m-233 28 c0 -9 -31 -76 -35 -76 -5 0 -35 55 -35 64 0 2 8 7 18 9
23 6 52 8 52 3z m-92 -41 c41 -52 46 -80 25 -138 l-19 -52 -83 2 c-185 4 -242
72 -119 142 29 17 59 29 66 26 6 -3 19 -8 27 -11 9 -4 25 6 42 25 33 37 36 38
61 6z m422 -136 c0 -10 -8 -15 -44 -23 -27 -7 -28 -6 -21 21 3 15 12 34 18 41
9 12 14 10 29 -8 10 -12 18 -26 18 -31z m-300 -51 c0 -4 -18 -8 -40 -8 -44 0
-48 8 -29 57 l11 28 29 -35 c16 -19 29 -38 29 -42z m328 -1 c25 -30 72 -168
72 -211 0 -72 -41 -79 -129 -21 -32 21 -41 34 -41 55 0 28 -15 40 -51 40 -29
0 -33 23 -10 67 24 48 36 58 81 71 49 14 66 14 78 -1z m-168 -27 c0 -5 -8 -23
-19 -40 l-19 -31 -26 33 -26 33 33 6 c50 10 57 10 57 -1z m-91 -54 l42 -43
-52 -69 c-90 -119 -140 -149 -173 -102 -19 27 -20 68 -5 157 17 98 20 101 87
101 55 0 60 -2 101 -44z"/>
<path d="M2028 2183 c-25 -29 -29 -52 -14 -87 24 -59 113 -56 134 3 12 33 -7
84 -33 95 -31 11 -72 6 -87 -11z"/>
<path d="M2780 2186 l0 -266 55 0 55 0 0 105 0 105 80 0 c71 0 84 -3 104 -23
14 -14 26 -42 30 -65 3 -23 9 -60 12 -82 l6 -40 54 0 c33 0 53 4 49 10 -3 5
-10 46 -15 91 -10 86 -29 128 -61 136 -17 5 -15 10 21 43 27 25 40 46 42 66 4
88 -16 134 -72 161 -28 14 -69 18 -197 21 l-163 4 0 -266z m305 149 c27 -26
31 -54 14 -88 -18 -34 -28 -37 -121 -37 l-88 0 0 75 0 75 85 0 c78 0 88 -2
110 -25z"/>
<path d="M4200 2355 c0 -54 0 -55 -30 -55 -27 0 -30 -3 -30 -30 0 -27 3 -30
30 -30 l30 0 0 -122 c0 -68 3 -133 6 -146 9 -32 54 -52 119 -52 l55 0 0 41 c0
36 -2 40 -20 34 -10 -3 -29 -1 -40 5 -19 10 -20 19 -18 123 l3 112 38 3 c34 3
37 6 37 33 0 27 -2 29 -40 29 l-40 0 0 55 0 55 -50 0 -50 0 0 -55z"/>
<path d="M3412 2297 c-44 -14 -98 -76 -112 -129 -24 -89 12 -188 83 -228 51
-29 136 -32 189 -6 32 15 78 68 78 90 0 13 -78 5 -90 -9 -7 -8 -28 -19 -47
-24 -62 -17 -123 22 -123 78 0 20 5 21 135 21 l135 0 0 38 c0 43 -28 109 -58
135 -46 41 -125 55 -190 34z m107 -72 c28 -14 41 -33 41 -61 0 -11 -18 -14
-85 -14 -97 0 -106 10 -56 61 33 32 58 36 100 14z"/>
<path d="M3900 2303 c-8 -3 -27 -17 -42 -31 l-28 -26 0 27 c0 26 -2 27 -50 27
l-50 0 0 -190 0 -190 50 0 50 0 0 118 c0 150 14 185 76 190 35 3 45 -1 63 -24
19 -24 21 -40 21 -155 l0 -129 51 0 52 0 -5 148 c-5 167 -15 198 -68 224 -34
17 -89 22 -120 11z"/>
<path d="M4409 2253 c100 -257 124 -333 113 -358 -10 -21 -19 -25 -52 -25
l-40 0 0 -40 0 -40 50 0 c61 0 105 20 124 58 15 29 166 434 166 445 0 4 -22 7
-48 7 l-49 0 -40 -127 c-21 -71 -43 -127 -48 -126 -5 1 -27 58 -49 127 l-39
126 -54 0 -53 0 19 -47z"/>
</g>
</svg>
